<?xml version="1.0" encoding="UTF-8" standalone="no"?>
<svg
   xmlns:dc="http://purl.org/dc/elements/1.1/"
   xmlns:cc="http://creativecommons.org/ns#"
   xmlns:rdf="http://www.w3.org/1999/02/22-rdf-syntax-ns#"
   xmlns:svg="http://www.w3.org/2000/svg"
   xmlns="http://www.w3.org/2000/svg"
   id="svg4823"
   version="1.1"
   viewBox="0 0 12.7 12.7"
   height="48"
   width="48">
  <defs
     id="defs4817" />
  <metadata
     id="metadata4820">
    <rdf:RDF>
      <cc:Work
         rdf:about="">
        <dc:format>image/svg+xml</dc:format>
        <dc:type
           rdf:resource="http://purl.org/dc/dcmitype/StillImage" />
        <dc:title></dc:title>
      </cc:Work>
    </rdf:RDF>
  </metadata>
  <g
     transform="translate(0,-284.3)"
     id="layer1">
    <path
       style="fill:#000000;stroke:#000000;stroke-width:0;stroke-linecap:round;stroke-linejoin:round;stroke-miterlimit:4;stroke-dasharray:none;stroke-opacity:1;paint-order:stroke markers fill"
       id="path4783"
       d="m 10.654543,285.64891 c -0.0033,0.683 0.01704,1.36694 -0.05034,2.0484 -0.03333,0.33719 -0.07752,0.67364 -0.131246,1.00866 -0.0586,0.36541 -0.137055,0.72796 -0.205594,1.09193 -0.08881,0.36983 -0.168131,0.74165 -0.26642,1.10949 -0.1810808,0.67768 -0.405609,1.39568 -0.6748928,2.05043 -0.235286,0.57207 -0.5106775,1.13111 -0.8690884,1.64951 -0.157105,0.22724 -0.3467448,0.43452 -0.5201155,0.65178 -0.2011334,0.17994 -0.3855435,0.37671 -0.6033982,0.53979 -0.64217,0.48073 -1.4424278,0.79183 -2.2773937,0.83964 -0.9566699,0.0384 -1.8314978,-0.32962 -2.4284402,-0.90313 -0.3756815,-0.36739 -0.6434219,-0.83987 -0.8399262,-1.3029 -0.1689026,-0.39799 -0.3034449,-0.88832 -0.3268658,-1.31615 -0.012621,-0.23102 0.022762,-0.46217 0.03415,-0.69324 0.064294,-0.22089 0.1009396,-0.45001 0.1929031,-0.66268 0.3119963,-0.72143 0.828852,-1.19829 1.5765797,-1.56111 0.5751549,-0.2791 0.9943321,-0.34197 1.6183967,-0.48923 1.6007388,-0.25876 3.2310431,-0.29378 4.8527414,-0.3128 1.5356609,-0.0178 1.5634589,1.9543 0.027797,1.97215 v 0 c -1.4545195,0.0168 -2.9153546,0.0468 -4.3547944,0.25429 -0.5053353,0.10755 -0.5609004,0.10102 -1.0134692,0.25956 -0.9672613,0.3182 -0.8507481,1.87819 -0.2839423,2.41164 0.4082717,0.41784 1.2276932,0.349 1.7285084,0.0721 0.1262695,-0.084 0.2347301,-0.18816 0.3520976,-0.28225 0.1217347,-0.14438 0.2560232,-0.2807 0.3651927,-0.43313 0.2968422,-0.41449 0.5166956,-0.85685 0.7089853,-1.3187 0.3868688,-0.92918 0.6421729,-1.89843 0.8609447,-2.86975 0.1488617,-0.77931 0.2294057,-1.10339 0.3085237,-1.87269 0.06642,-0.64578 0.042576,-1.29431 0.04715,-1.94167 0,-1.39465 2.1719274,-1.39465 2.1719274,0 z" />
  </g>
</svg>
